<?xml version="1.0" encoding="UTF-8" standalone="no"?>
<svg
   width="40"
   height="40"
   viewBox="0 0 40 40"
   fill="none"
   version="1.1"
   id="svg3"
   sodipodi:docname="pluginIcon.svg"
   inkscape:version="1.4 (e7c3feb100, 2024-10-09)"
   xmlns:inkscape="http://www.inkscape.org/namespaces/inkscape"
   xmlns:sodipodi="http://sodipodi.sourceforge.net/DTD/sodipodi-0.dtd"
   xmlns="http://www.w3.org/2000/svg"
   xmlns:svg="http://www.w3.org/2000/svg">
  <sodipodi:namedview
     id="namedview3"
     pagecolor="#ffffff"
     bordercolor="#000000"
     borderopacity="0.25"
     inkscape:showpageshadow="2"
     inkscape:pageopacity="0.0"
     inkscape:pagecheckerboard="0"
     inkscape:deskcolor="#d1d1d1"
     inkscape:zoom="3.9774756"
     inkscape:cx="-41.735014"
     inkscape:cy="-33.186878"
     inkscape:window-width="1920"
     inkscape:window-height="1131"
     inkscape:window-x="0"
     inkscape:window-y="0"
     inkscape:window-maximized="1"
     inkscape:current-layer="svg3" />
  <defs
     id="defs3">
    <linearGradient
       id="paint0_linear"
       x1="2.94192"
       y1="4.89955"
       x2="37.7772"
       y2="39.7345"
       gradientUnits="userSpaceOnUse">
      <stop
         offset="0.15937"
         stop-color="#3BEA62"
         id="stop1" />
      <stop
         offset="0.5404"
         stop-color="#3C99CC"
         id="stop2" />
      <stop
         offset="0.93739"
         stop-color="#6B57FF"
         id="stop3" />
    </linearGradient>
  </defs>
  <rect
     style="fill:#80e5ff;stroke:#002255;stroke-width:1.7;stroke-linejoin:round;stroke-miterlimit:0;paint-order:fill markers stroke"
     id="rect3"
     width="33.438293"
     height="32.935463"
     x="3.2808533"
     y="3.5322685" />
  <path
     d="M 36.178767,6.5172482 31.04403,11.83804 29.070896,10.042197 30.857301,6.5334272 Z M 13.032344,21.420589 c -0.970051,0.270994 -2.014256,-0.285825 -2.289296,-1.286886 -0.266275,-0.98286 0.299982,-2.016279 1.279471,-2.295362 l 0.759729,-0.212347 0.98623,3.574159 z m 0.59794,-4.024468 6.144562,-1.754722 c 0.404469,-0.106511 0.812309,0.140216 0.926234,0.549404 l 0.574347,2.082342 c 0.112577,0.409862 -0.105162,0.827814 -0.517721,0.951177 l -6.14928,1.738543 z m -0.969377,5.919407 c 0.46851,-0.450984 1.050945,-0.811635 1.728431,-1.000388 l 7.450997,-2.1147 4.577243,-8.230947 c 0.242682,-0.426041 0.630972,-0.762425 1.132514,-0.901967 1.003084,-0.286499 2.046614,0.311441 2.320979,1.328007 0.137519,0.484015 0.07281,0.975445 -0.145609,1.393397 l -5.725935,10.181838 c 0,0 -0.469185,0.762424 -1.649561,1.156782 l -10.409689,2.96004 -4.8280133,4.967556 c -0.161788,0.171899 -0.372787,0.302678 -0.622883,0.377504 -0.728045,0.204931 -1.487773,-0.238637 -1.698771,-0.968703 -0.138193,-0.515699 0.02359,-1.057013 0.388291,-1.393397 z m -5.5574073,2.058074 -1.081955,1.434517 -2.200312,-2.435579 1.859209,-1.050272 c -0.176618,-1.319918 0.632321,-2.59804 1.925948,-2.966781 1.423058,-0.402447 2.9034153,0.43413 3.2984463,1.877411 0.405818,1.451371 -0.428063,2.942514 -1.8511203,3.34496 -0.679509,0.196168 -1.367106,0.08966 -1.950216,-0.204256 z"
     fill="#231f20"
     id="path1"
     style="fill:#162d50;stroke-width:16" />
</svg>
