<?xml version="1.0" encoding="UTF-8" standalone="no"?>
<svg
   width="40"
   height="40"
   viewBox="0 0 40 40"
   fill="none"
   version="1.1"
   id="svg3"
   sodipodi:docname="pluginIcon.svg"
   inkscape:version="1.4 (e7c3feb100, 2024-10-09)"
   xmlns:inkscape="http://www.inkscape.org/namespaces/inkscape"
   xmlns:sodipodi="http://sodipodi.sourceforge.net/DTD/sodipodi-0.dtd"
   xmlns="http://www.w3.org/2000/svg"
   xmlns:svg="http://www.w3.org/2000/svg">
  <sodipodi:namedview
     id="namedview3"
     pagecolor="#ffffff"
     bordercolor="#000000"
     borderopacity="0.25"
     inkscape:showpageshadow="2"
     inkscape:pageopacity="0.0"
     inkscape:pagecheckerboard="0"
     inkscape:deskcolor="#d1d1d1"
     inkscape:zoom="3.9774756"
     inkscape:cx="-75.424724"
     inkscape:cy="-24.638743"
     inkscape:window-width="1920"
     inkscape:window-height="1131"
     inkscape:window-x="0"
     inkscape:window-y="0"
     inkscape:window-maximized="1"
     inkscape:current-layer="svg3" />
  <defs
     id="defs3">
    <linearGradient
       id="paint0_linear"
       x1="2.94192"
       y1="4.89955"
       x2="37.7772"
       y2="39.7345"
       gradientUnits="userSpaceOnUse">
      <stop
         offset="0.15937"
         stop-color="#3BEA62"
         id="stop1" />
      <stop
         offset="0.5404"
         stop-color="#3C99CC"
         id="stop2" />
      <stop
         offset="0.93739"
         stop-color="#6B57FF"
         id="stop3" />
    </linearGradient>
  </defs>
  <rect
     style="fill:#afdde9;stroke:#162d50;stroke-width:1.7;stroke-linejoin:round;stroke-miterlimit:0;paint-order:fill markers stroke;opacity:1"
     id="rect3"
     width="33.438293"
     height="32.935463"
     x="3.2808533"
     y="3.5322685" />
  <g
     id="g2"
     transform="matrix(0.4918561,0,0,0.4918561,5.9824919,5.9823303)"
     style="stroke-width:28.5358;fill:#216778">
	<path
   style="fill:#216778;stroke-width:28.5358"
   d="m 29.577,23.645 0.393,6.242 -4.116,0.26 -0.394,-6.242 z m 27.203,5.487 c -2.105,0.217 -3.576,-2.611 -3.576,-7.678 -1.736,-1.567 -9.93,6.998 -9.93,6.998 l 0.053,0.114 c -1.854,1.298 -3.744,2.539 -5.633,3.781 0.945,-2.646 1.854,-5.31 2.645,-8.012 0.023,-0.085 0.043,-0.167 0.059,-0.249 l 6.971,-6.285 C 42.723,15.912 44.5,13.292 39.431,11.18 c -1.513,0.453 -3.106,9.394 -3.433,11.299 -0.104,0.174 -0.188,0.368 -0.254,0.588 -0.863,2.961 -1.875,5.871 -2.914,8.771 -6.845,-2.015 -14.03,-0.954 -20.877,0.779 -3.567,0.903 -3.578,5.048 -1.507,6.978 0.266,0.463 0.739,0.817 1.46,0.942 4.128,0.714 7.784,2.435 11.189,4.847 2.515,1.778 4.894,-2.354 2.405,-4.117 -1.178,-0.834 -2.407,-1.588 -3.673,-2.27 3.534,-0.334 7.06,-0.098 10.574,1.225 1.531,0.574 3.226,-0.172 4.222,-1.398 3.272,-2.29 6.688,-4.375 9.937,-6.706 0.086,-0.062 0.164,-0.127 0.235,-0.192 3.618,-0.917 11.624,-2.963 9.985,-2.794 z M 6.082,34.718 c 1.784,-3.654 3.775,-3.646 6.487,-3.64 1.178,0.005 2.5,0.01 3.892,-0.332 L 25.104,30.2 24.71,23.956 13.52,24.662 c -1.725,0.109 -3.034,1.595 -2.925,3.319 0.028,0.438 0.145,0.848 0.331,1.215 C 8.483,29.329 6.076,30.1 4.163,34.319 2.433,34.366 0.834,35.467 0.246,37.203 -0.161,38.401 0,39.651 0.579,40.671 L 0,42.38 4.03,43.747 4.342,42.824 c 0.179,-0.003 0.356,-0.017 0.532,-0.042 0.622,0.55 1.567,0.566 2.204,0.003 C 7.536,42.382 7.712,41.779 7.604,41.22 7.902,40.847 8.145,40.418 8.308,39.939 9.012,37.863 8.022,35.623 6.082,34.718 Z"
   id="path1" />

</g>
</svg>
